<?xml version="1.0" standalone="yes"?>
<svg xmlns="http://www.w3.org/2000/svg" width="1250" height="1250">
<path style="fill:#ffffff; stroke:none;" d="M0 0L0 1250L1250 1250L1250 0L0 0z"/>
<path style="fill:#ef1d25; stroke:none;" d="M200 107.425C176.204 110.664 153.494 117.641 133 130.425C46.7205 184.245 34.8096 312.183 107.015 382.961C143.453 418.678 195.093 432.434 245 425.711C265.858 422.902 286.116 414.881 304 403.997C401.901 344.414 404.907 195.979 309 133.079C293.004 122.588 274.707 114.828 256 110.79C238.148 106.936 218.226 104.944 200 107.425M494 1016C491.581 1007.38 481.072 1001.57 475.285 995C464.009 982.191 454.831 968.275 447.248 953C422.665 903.485 413.848 848.186 407 794L448 794L464.772 791.682L470.6 773L480 729L481 729C487.832 747.33 487.526 773.525 498.089 789.891C504.975 800.56 522.352 787.088 526.556 803C530.884 819.38 531.631 838.347 538.144 853.985C540.477 859.585 547.387 861.567 552.906 859.258C559.377 856.55 558.963 846.806 559.001 841C559.109 824.239 560.581 806.694 562.17 790C566.06 749.126 567.284 707.961 570.089 667C572.294 634.811 576 602.287 576 570L577 570C577 625.269 581.544 680.806 583.961 736C586.3 789.424 585.104 843.774 590.17 897C592.884 925.518 591.066 954.525 594.174 983C595.281 993.149 605.233 999.833 614.906 994.543C625.373 988.819 624.084 961.583 625.576 951C631.018 912.387 635.214 873.603 640.729 835C642.033 825.872 640.802 801.389 649.133 795.938C657.186 790.67 674.689 794 684 794C712.999 794 742.002 794.139 771 793.999C879.292 793.477 987.648 792.522 1096 791.999C1115.6 791.905 1135.32 791 1155 791C1162.89 791 1173.29 789.203 1180.9 791.318C1189.53 793.717 1190.52 806.768 1202 807.895C1215.41 809.212 1227.35 801.348 1227.74 787C1228.14 772.148 1214.76 763.109 1201 765.213C1189.75 766.933 1188.22 781.393 1179 782.852C1165.71 784.955 1149.61 782 1136 782C1098.94 782 1062.04 781 1025 781C964.284 781 903.63 779.5 843 778.015C809.642 777.197 775.2 779.99 742 776.83C715.06 774.266 687.083 775 660 775C651.454 775 638.319 771.065 631.228 777.43C623.343 784.507 625.012 806.07 623.718 816C619 852.217 611.101 890.48 611 927L610 927C609.741 895.735 606.408 864.246 605.039 833C601.521 752.652 597.557 672.333 594.039 592C592.885 565.631 594.011 538.164 590.576 512C589.468 503.561 591.864 490.421 580.999 487.434C572.088 484.984 564.643 490.038 563.301 499C560.09 520.438 561.823 542.495 559.286 564C554.484 604.698 554.754 647.042 552.961 688C551.024 732.233 546 776.711 546 821L545 821C543.631 810.4 541.911 795.693 537.347 786.019C532.221 775.152 517.67 784.152 510.419 776.697C506.65 772.821 505.947 765.961 504.33 761C500.539 749.369 496.813 737.712 493.28 726C490.998 718.434 486.628 709.558 477.004 713.036C469.771 715.651 468.828 724.517 467.116 731C463.712 743.884 461.855 764.988 454.146 775.856C450.991 780.303 444.85 779.99 440 780C428.652 780.023 417.338 781.906 406 782C406 750.1 403.797 717.916 403.015 686C402.066 647.292 404 608.66 404 570C404 551.648 403.001 533.28 403 515C403 507.981 405.175 496.258 401.062 490.148C397.401 484.71 385.694 487 380 487L319 487C243.974 487 169.057 486 94 486L40 486C33.7322 486 23.8597 484.979 19.9383 491.109C13.6265 500.975 18.4746 521.9 18.9606 533C20.4723 567.522 19 602.441 19 637C19 657.71 17.1964 678.264 19.1698 699C24.6977 757.089 41.671 813.82 73.6952 863C142.247 968.275 269.599 1010.91 389 1019.09C422.741 1021.4 461.081 1023.55 494 1016z"/>
<path style="fill:#01196b; stroke:none;" d="M915 581L915 761L949 760L949 582L915 581M653 599L653 760L690 760L690 689C709.252 689 730.721 689.005 746.999 677.073C766.447 662.816 770.314 623.129 749.985 607.927C738.036 598.992 723.182 599 709 599L653 599z"/>
<path style="fill:#ffffff; stroke:none;" d="M690 612L690 675C699.45 675 708.511 674.481 715.957 667.787C728.862 656.185 728.964 627.42 714.96 616.558C708.123 611.255 698.164 612 690 612z"/>
<path style="fill:#01196b; stroke:none;" d="M983 730L975 730C974.531 735.937 969.708 748.224 973.032 753.471C977.131 759.942 990.957 762.81 998 762.985C1017.19 763.463 1040.45 761.088 1048.29 740C1056.84 717.001 1044.98 699.305 1024 690.281C1015.32 686.547 998.368 682.985 996.178 671.999C994.226 662.204 1006.27 657.495 1014 658.094C1023.83 658.856 1031.38 666.938 1034 676C1044.7 675.962 1051.81 657.842 1041.98 651.468C1028.74 642.877 1007.46 640.599 993 647.324C974.178 656.076 964.599 681.823 976.85 700C985.87 713.383 1003.03 715.632 1016 723.479C1021.25 726.654 1027.68 732.2 1024.99 738.996C1016.67 760.018 987.868 745.244 983 730M1164 737C1155.07 735.473 1147.11 745.354 1138 746.699C1110.44 750.77 1101 725.873 1101 703L1168 703C1168 686.034 1165.81 665.315 1151.91 653.518C1119.84 626.297 1067.88 652.167 1065.09 692C1063.4 716.092 1068.16 743.254 1091 756.124C1113.66 768.89 1158.63 768.203 1164 737M780 645L780 708C780 719.03 778.42 731.414 782.101 742C789.166 762.318 816.79 768.488 835 760.099C842.207 756.779 847.49 750.51 853 745L853 761L885 761L885 645L852 645C852 670.674 854.233 697.538 850.841 723C849.301 734.56 840.509 744.476 828 741.606C818.497 739.425 813.735 727.793 813.09 719C811.301 694.609 813 669.462 813 645L780 645z"/>
<path style="fill:#ffffff; stroke:none;" d="M1101 692L1134 692C1134 681.307 1135.26 664.503 1124.96 657.603C1105.7 644.705 1101 681.433 1101 692z"/>
<path style="fill:#01196b; stroke:none;" d="M933 808L933 869L945 868C945 862.301 941.714 838.213 950.997 838.346C960.338 838.479 957 863.157 957 869L969 868C969 856.426 973.531 822.971 952.002 830.111C949.383 830.98 947.228 832.428 945 834L945 809L933 808M1126 808L1126 869L1138 868L1138 809L1126 808M672 815L672 868L685 868L685 845L686 845C692 859.263 699.772 868 715 868L700.291 846L695.73 837L714 815C699.547 815.002 694.252 827.333 685 837L685 815L672 815M886 815L886 822L901 821L901 868L913 868L913 821L927 821L927 815L886 815M1039 815L1039 868L1052 868L1052 845C1058.29 844.999 1065.54 845.185 1070.81 841.146C1077.09 836.341 1078.6 823.011 1071.79 817.995C1063.76 812.091 1048.43 815 1039 815z"/>
<path style="fill:#ffffff; stroke:none;" d="M1052 819L1052 841C1065.78 838.847 1066.99 819.486 1052 819z"/>
<path style="fill:#01196b; stroke:none;" d="M719 830L719 868L731 869C731 863.096 727.575 838.485 736.997 838.485C746.244 838.485 743 862.277 743 868L755 869C755 856.163 759.631 823.656 737.002 830.651C734.252 831.501 732.182 833.214 730 835L730 830L719 830M774 830.558C761.257 833.901 757.106 851.904 764.51 861.985C769.567 868.87 779.037 870.402 787 868.467C799.479 865.434 804.429 847.202 797.297 837.043C792.367 830.02 781.87 828.493 774 830.558M803 830L811.28 856L815.702 866.972L825 868L832 845L839 868L849 869L862 830C851.1 830.13 850.044 846.085 848 855L847 855C845.232 842.985 843.599 830.001 830 830L823 855L822 855L816 830L803 830M1009 861C998.335 862.835 988.678 864.602 988 850L1010 850C1009.98 844.03 1009.52 837.713 1004.79 833.394C993.497 823.09 976.467 833.677 975.177 847C974.454 854.478 977.345 862.843 984.004 866.772C991.836 871.393 1005.73 870.401 1009 861M1081 830C1081 843.448 1075.33 874.101 1098 868.583C1100.62 867.945 1102.78 866.446 1105 865L1105 869L1116 869L1116 830L1105 830C1105 835.596 1108.03 862.016 1098.03 860.824C1088.52 859.692 1092 836.4 1092 830L1081 830M1146 858C1144.1 873.447 1167.88 872.528 1171.43 859.999C1173.6 852.329 1168.42 847.301 1162 844.424C1159.66 843.376 1153.46 841.318 1154.61 837.673C1156.75 830.924 1165.74 839.038 1169 840L1171 833C1160.81 828.849 1137.04 830.678 1146.46 847.906C1149.62 853.695 1157.95 853.124 1161.11 858.387C1164.23 863.582 1156.14 864.541 1153.09 862.49C1150.5 860.748 1149.03 858.922 1146 858M1210 861C1199.33 862.835 1189.68 864.601 1189 850L1211 850C1210.98 844.03 1210.52 837.713 1205.79 833.394C1194.5 823.09 1177.47 833.677 1176.18 847C1175.45 854.478 1178.35 862.843 1185 866.772C1192.84 871.393 1206.73 870.401 1210 861z"/>
<path style="fill:#ffffff; stroke:none;" d="M780.018 834.89C770.178 837.224 771.842 867.216 781.899 864.149C790.734 861.455 790.751 832.344 780.018 834.89M988 846L998 846C997.962 832.794 988.276 833.086 988 846M1189 846L1199 846C1198.96 832.794 1189.28 833.086 1189 846z"/>
</svg>
